<svg version="1.2" xmlns="http://www.w3.org/2000/svg" viewBox="0 0 289 93" width="289" height="93">
    <style>.a{fill:#231f20}.b{fill:#38b449}</style>
    <path class="a" d="m124.2 66.6v-6.3h-5.9v9c1.8-1.4 4.4-2.3 5.9-2.7z"/>
    <path class="a"
          d="m132.9 91v-5.4q4.8 1.8 10.9 1.8 7.4 0 7.4-4.9 0-3.6-4.6-3.6h-5.4q-9.9 0-9.9-9 0-9.9 14-9.9 5.4 0 10.2 1.6v5.4q-4.8-1.8-10.2-1.8-8.1 0-8.1 4.7 0.1 3.6 4 3.6h5.4q10.5 0 10.5 9 0 10.1-13.3 10.1-6.1 0-10.9-1.6z"/>
    <path fill-rule="evenodd" class="a"
          d="m161.5 76.4q0-16.4 16.2-16.4 15.8 0 15.8 16.4 0 16.2-15.8 16.2-15.4 0-16.2-16.2zm16.2 11q9.6 0 9.7-11.2-0.1-11-9.7-11-10 0-10 11 0 11.2 10 11.2z"/>
    <path class="a" d="m32.4 60.3h-6.4l-13.7 32.1h6.2l10.2-25.1c0.7-2.1 2.1-5.9 3.7-7z"/>
    <path class="a" d="m33.8 63.6l-3.9 4.7 4.4 10.1h-7.5l-2 5.2h11l4.1 8.8h6.4z"/>
    <path class="a"
          d="m215.1 78.5q7.7-3.8 7.7-9.6 0-8.6-9.9-8.6h-5.6c-0.2 1.7-0.8 3.8-1.2 5.2h6.5q3.9 0 4 3.5 0 5.2-8.8 6.7v2.7l9.8 14h7.7z"/>
    <path class="a" d="m204.4 60.3h-6.1v32h6.1v-26.8z"/>
    <path class="a" d="m101.8 88.7l12.4-28.4h-7l-9.4 23.2z"/>
    <path class="a" d="m97.1 84.5l-9.8-24.2h-7l13.4 32.1h6.4l0.1-0.2c-1.6-2.3-2.4-6-3.1-7.7z"/>
    <path class="b" d="m118.3 73.7v18.7h5.9v-23.8z"/>
    <path class="a"
          d="m64.1 60.3h-13.9v32.1h6v-27h7q10 0 10 10 0 11.8-10 11.8h-3.9c0.3 1.2 0.4 2.3 0.2 3.1-0.3 1.3-1.1 1.9-1.8 2.1h6.4q15.1 0 15.1-17 0-15.1-15.1-15.1z"/>
    <path class="a"
          d="m117.7 27.7c0 0 83.7-12 122.3-5.2 0 0 21 2.7 32.7 11 11.7 8.4 15.9 15 15.9 15l-35.7-0.2c5.1-1.3 10.1-2.9 15.4-3.4 1.8-0.2 6.5-1.8 7.9-0.7 0 0-17-15.6-49.2-18-32.1-2.5-109.3 1.5-109.3 1.5z"/>
    <path fill-rule="evenodd" class="b"
          d="m231.7 92.1l4.5-16.5h4.6l4 16.5h-3.7l-0.8-4.3h-3.9l-1.1 4.3zm5.2-6.7h3l-1.3-7.7z"/>
    <path class="b"
          d="m246.8 87.7v-12.1h3.4v11.6q0 1.4 0.5 2 0.6 0.7 1.8 0.7 1.2 0 1.7-0.7 0.5-0.6 0.5-2v-11.6h3.5v12.1q0 4.7-5.7 4.7-1.5 0-2.6-0.3-1.1-0.4-1.8-1-0.7-0.6-1-1.4-0.3-0.9-0.3-2z"/>
    <path class="b" d="m271.6 75.6v2.7h-3.9v13.8h-3.4v-13.8h-4v-2.7z"/>
    <path fill-rule="evenodd" class="b"
          d="m274.2 77.7q0.7-1.2 2-1.8 1.3-0.6 3.1-0.6 1.8 0 3.1 0.6 1.3 0.5 2 1.8 0.7 1.2 0.7 3.3v5.8q0 2.1-0.7 3.3-0.7 1.2-2 1.7-1.3 0.6-3.1 0.6-5.8 0-5.8-5.6v-5.8q0-2 0.7-3.3zm5.1 12.2q1.1 0 1.7-0.7 0.6-0.7 0.6-2v-6.6q0-1.3-0.6-2-0.6-0.8-1.7-0.8-2.3 0-2.3 2.8v6.6q0 2.7 2.3 2.7z"/>
    <path class="a"
          d="m47.4 13.7c0 0 58.8-15.2 97-13.6 57.4 2.4 78.3 31.9 78.3 31.9 0 0-37.1-25-84.7-25.3-37.6-0.2-90.6 7-90.6 7z"/>
    <path class="a"
          d="m-0.5 43.4c5.2-1.8 10.5-3.3 15.7-4.8 2.6-0.7 5.3-1.3 7.9-2l8-1.9 7.9-1.7c2.7-0.5 5.4-1 8.1-1.5 5.3-1 10.7-1.8 16.2-2.4-5.2 1.8-10.5 3.3-15.7 4.7-2.6 0.7-5.3 1.3-7.9 2l-8 1.9-8 1.7c-2.6 0.5-5.3 1.1-8 1.5-5.3 1-10.7 1.9-16.2 2.5z"/>
    <path class="a"
          d="m22.5 26.8c5-1.8 10-3.2 15.1-4.4 5.1-1.2 10.3-2.2 15.4-3.2 2.6-0.4 5.2-0.8 7.7-1.2 2.6-0.3 5.2-0.7 7.8-1 5.2-0.5 10.5-0.9 15.7-1-5.1 1.3-10.2 2.3-15.3 3.4-2.6 0.5-5.1 0.9-7.7 1.4l-7.7 1.4-7.7 1.3c-2.6 0.4-5.1 0.8-7.7 1.2-5.2 0.8-10.3 1.5-15.6 2.1z"/>
    <path class="a" d="m527.2 68v-6.2h-5.9v9c1.8-1.4 4.5-2.3 5.9-2.8z"/>
    <path class="a"
          d="m535.9 92.5v-5.4q4.8 1.8 10.9 1.8 7.4 0 7.4-4.9 0-3.6-4.5-3.6h-5.5q-9.9 0-9.9-9 0-9.9 14.1-9.9 5.4 0 10.2 1.6v5.4q-4.8-1.8-10.2-1.8-8.1 0-8.1 4.7 0 3.6 3.9 3.6h5.5q10.5 0 10.5 9 0 10.1-13.4 10.1-6.1 0-10.9-1.6z"/>
    <path fill-rule="evenodd" class="a"
          d="m564.6 77.8q0-16.3 16.1-16.3 15.9 0 15.9 16.3 0 16.3-15.9 16.3-15.4 0-16.1-16.3zm16.1 11.1q9.7 0 9.7-11.2 0-11-9.7-11-9.9 0-9.9 11 0 11.2 9.9 11.2z"/>
    <path class="a" d="m435.4 61.8h-6.4l-13.6 32.1h6.1l10.2-25.1c0.7-2.1 2.2-5.9 3.7-7z"/>
    <path class="a" d="m436.9 65.1l-4 4.7 4.4 10.1h-7.4l-2.1 5.2h11.1l4 8.8h6.4z"/>
    <path class="a"
          d="m618.2 80q7.6-3.8 7.6-9.6 0-8.6-9.8-8.6h-5.6c-0.2 1.7-0.8 3.8-1.3 5.2h6.5q4 0 4 3.5 0 5.2-8.8 6.7v2.7l9.8 14h7.7z"/>
    <path class="a" d="m607.5 61.8h-6.1v32h6.1v-26.8z"/>
    <path class="a" d="m504.8 90.2l12.5-28.4h-7l-9.4 23.2z"/>
    <path class="a" d="m500.2 86l-9.8-24.2h-7.1l13.5 32.1h6.4l0.1-0.2c-1.6-2.3-2.5-6-3.1-7.7z"/>
    <path class="b" d="m521.3 75.2v18.7h5.9v-23.8z"/>
    <path class="a"
          d="m467.2 61.8h-13.9v32.1h5.9v-27h7.1q10 0 10 10 0 11.8-10 11.8h-3.9c0.2 1.2 0.3 2.3 0.1 3-0.3 1.4-1 2-1.7 2.2h6.4q15 0 15-17 0-15.1-15-15.1z"/>
    <path class="a"
          d="m520.7 29.2c0 0 83.8-12 122.3-5.2 0 0 21.1 2.7 32.8 11 11.7 8.4 15.9 15 15.9 15l-35.8-0.2c5.1-1.3 10.2-2.9 15.4-3.4 1.9-0.2 6.6-1.8 7.9-0.7 0 0-17-15.6-49.1-18-32.2-2.5-109.4 1.5-109.4 1.5z"/>
    <path fill-rule="evenodd" class="b"
          d="m634.7 93.6l4.6-16.5h4.6l4 16.5h-3.7l-0.9-4.3h-3.8l-1.1 4.3zm5.2-6.8h3l-1.4-7.6z"/>
    <path class="b"
          d="m649.8 89.1v-12h3.4v11.6q0 1.4 0.6 2 0.5 0.7 1.7 0.7 1.3 0 1.8-0.7 0.5-0.6 0.5-2v-11.6h3.4v12q0 4.8-5.7 4.8-1.5 0-2.5-0.4-1.1-0.3-1.8-0.9-0.7-0.6-1.1-1.4-0.3-0.9-0.3-2.1z"/>
    <path class="b" d="m674.7 77.1v2.7h-3.9v13.8h-3.5v-13.8h-4v-2.7z"/>
    <path fill-rule="evenodd" class="b"
          d="m677.2 79.2q0.8-1.3 2.1-1.8 1.3-0.6 3.1-0.6 1.8 0 3.1 0.6 1.3 0.5 2 1.8 0.7 1.2 0.7 3.3v5.8q0 2.1-0.7 3.3-0.7 1.2-2 1.7-1.3 0.6-3.1 0.6-5.9 0-5.9-5.6v-5.8q0-2 0.7-3.3zm5.2 12.2q1.1 0 1.7-0.7 0.6-0.7 0.6-2v-6.6q0-1.3-0.6-2-0.6-0.8-1.7-0.8-2.4 0-2.4 2.8v6.6q0 2.7 2.4 2.7z"/>
    <path fill-rule="evenodd" class="a"
          d="m419.1 122.6l-1.3 3.8h-1.8l4.4-12.1h2l4.4 12.1h-1.8l-1.3-3.8zm4.2-1.2l-1.3-3.5c-0.3-0.8-0.5-1.5-0.6-2.2h-0.1q-0.3 1.1-0.6 2.2l-1.3 3.5z"/>
    <path fill-rule="evenodd" class="a"
          d="m436.4 114.5c0.7-0.2 1.8-0.3 3-0.3 1.7 0 2.7 0.3 3.5 0.9 0.7 0.5 1.1 1.2 1.1 2.1 0 1.2-0.8 2.2-2.2 2.7 1.3 0.3 2.7 1.3 2.7 3.1 0 1-0.4 1.8-1.1 2.4-0.9 0.7-2.4 1.1-4.5 1.1-1.1 0-2-0.1-2.5-0.1zm1.6 4.9h1.5c1.8 0 2.8-0.9 2.8-2 0-1.4-1.1-2-2.8-2-0.8 0-1.2 0.1-1.5 0.1zm0 5.8q0.5 0.1 1.4 0.1c1.7 0 3.3-0.6 3.3-2.4 0-1.6-1.5-2.3-3.3-2.3h-1.4z"/>
    <path class="a" d="m456.7 115.6h-3.9v-1.3h9.5v1.3h-3.9v10.8h-1.7z"/>
    <path fill-rule="evenodd" class="a"
          d="m481.8 120.2c0 4.2-2.7 6.4-6 6.4-3.4 0-5.8-2.5-5.8-6.1 0-3.9 2.5-6.4 6-6.4 3.5 0 5.8 2.5 5.8 6.1zm-10 0.2c0 2.6 1.5 4.9 4.1 4.9 2.6 0 4.1-2.3 4.1-5 0-2.4-1.3-4.9-4.1-4.9-2.8 0-4.1 2.4-4.1 5z"/>
    <path class="a"
          d="m512.3 126c-0.6 0.3-1.9 0.6-3.4 0.6-3.7 0-6.4-2.2-6.4-6.1 0-3.8 2.7-6.4 6.7-6.4 1.7 0 2.7 0.3 3.1 0.5l-0.4 1.3c-0.6-0.3-1.5-0.5-2.6-0.5-3 0-5 1.8-5 5 0 3 1.8 4.9 4.9 4.9 1 0 2.1-0.2 2.7-0.5z"/>
    <path class="a" d="m540.6 114.3v1.3h-5.2v10.8h-1.7v-12.1z"/>
    <path fill-rule="evenodd" class="a"
          d="m550.2 122.6l-1.4 3.8h-1.7l4.4-12.1h2l4.4 12.1h-1.8l-1.3-3.8zm4.2-1.2l-1.3-3.5c-0.3-0.8-0.5-1.5-0.6-2.2h-0.1q-0.3 1.1-0.6 2.2l-1.3 3.5z"/>
    <path fill-rule="evenodd" class="a"
          d="m567.5 114.5c0.8-0.2 1.8-0.3 3.2-0.3 1.6 0 2.8 0.4 3.6 1 0.7 0.6 1.1 1.5 1.1 2.6q0 1.6-1 2.5c-0.9 0.9-2.3 1.4-3.9 1.4-0.5 0-1-0.1-1.4-0.1v4.8h-1.6zm1.6 5.8q0.6 0.2 1.4 0.2c2 0 3.2-1 3.2-2.6 0-1.6-1.2-2.4-3-2.4-0.7 0-1.3 0.1-1.6 0.1z"/>
    <path fill-rule="evenodd" class="a"
          d="m585.8 122.6l-1.4 3.8h-1.7l4.4-12.1h2l4.4 12.1h-1.8l-1.4-3.8zm4.3-1.2l-1.3-3.5c-0.3-0.8-0.5-1.5-0.7-2.2q-0.3 1.1-0.7 2.2l-1.2 3.5z"/>
    <path class="a" d="m604.7 114.3v5.1h6.2v-5.1h1.7v12.1h-1.7v-5.7h-6.2v5.7h-1.7v-12.1z"/>
    <path class="a" d="m625.6 115.6h-3.9v-1.3h9.5v1.3h-3.9v10.8h-1.7z"/>
    <path class="a"
          d="m641.9 114.3v5.1c0 1.9-0.1 3.5-0.2 5.1h0.1c0.6-1.2 1.4-2.5 2.3-4l4.2-6.2h1.7v12.1h-1.6v-5.2c0-1.9 0-3.3 0.2-4.9h-0.1c-0.6 1.3-1.5 2.7-2.4 4.1l-4 6h-1.8v-12.1z"/>
    <path class="a" d="m667.2 120.7h-5v4.4h5.6v1.3h-7.3v-12.1h7v1.3h-5.3v3.8h5z"/>
    <path class="a"
          d="m679.2 114.3v5.1c0 1.9-0.1 3.5-0.2 5.1 0.7-1.2 1.5-2.5 2.4-4l4.2-6.2h1.7v12.1h-1.6v-5.2c0-1.9 0-3.3 0.2-4.9h-0.1c-0.6 1.3-1.5 2.7-2.4 4.1l-4 6h-1.8v-12.1zm2.1-2.5c0.1 0.5 0.3 1.1 1.2 1.1 0.8 0 1.1-0.5 1.1-1.1h1.3c-0.1 1.2-0.8 1.9-2.5 1.9-1.5 0-2.3-0.7-2.4-1.9z"/>
    <path class="a"
          d="m450.5 15.2c0 0 58.8-15.2 96.9-13.6 57.5 2.4 78.4 31.9 78.4 31.9 0 0-37.1-25-84.8-25.3-37.6-0.2-90.5 7-90.5 7z"/>
    <path class="a"
          d="m402.6 44.8c5.2-1.8 10.4-3.3 15.7-4.7 2.6-0.7 5.2-1.3 7.9-2l7.9-1.9 8-1.7c2.7-0.5 5.3-1.1 8-1.5 5.4-1 10.8-1.9 16.2-2.4-5.2 1.8-10.4 3.3-15.7 4.7-2.6 0.7-5.2 1.3-7.9 2l-7.9 1.9-8 1.7c-2.7 0.5-5.3 1-8 1.5-5.4 1-10.8 1.9-16.2 2.4z"/>
    <path class="a"
          d="m425.6 28.2c4.9-1.7 10-3.1 15.1-4.3 5.1-1.2 10.2-2.3 15.3-3.2 2.6-0.4 5.2-0.8 7.8-1.2 2.6-0.3 5.2-0.7 7.8-1 5.2-0.6 10.4-0.9 15.7-1-5.1 1.3-10.3 2.3-15.4 3.3-2.5 0.6-5.1 1-7.6 1.5l-7.7 1.4-7.7 1.3c-2.6 0.4-5.2 0.8-7.8 1.2-5.1 0.8-10.3 1.5-15.5 2z"/>
</svg>