<svg data-v-6ca17bd6="" width="237" height="54" xmlns="http://www.w3.org/2000/svg" viewBox="0 0 237 54" fill="none"><path class="icon" d="M33.1067 28.0453H46.68L39.86 10.7813L33.1067 28.0453Z" fill="#002528"></path><path class="icon" d="M48.308 32.2386H31.4773L27.5386 42.0612C26.664 44.2506 26.1 46.8146 29.0373 48.8786H17.2133C20.4693 46.7546 21.72 43.9359 22.9066 40.9333L35.4186 9.27993C35.672 8.65326 36.5453 6.27721 33.9813 5.08787H44.2386L54.0013 29.2666V0.0012207H0.039978V53.9652H54.0013V46.4212L48.308 32.2386Z" fill="#002528"></path><path d="M89.1773 5.14395L97.3413 25.3666C97.8813 26.6879 98.56 27.9759 100.219 28.8559H92.936C94.528 28.1439 94.2573 26.9932 93.9533 26.2146L91.3773 19.8452H82.2653L80.1333 25.1639C79.6573 26.3493 79.3533 27.7386 80.944 28.8559H74.5413C76.3053 27.7039 76.9813 26.1799 77.6266 24.5546L84.4013 7.41328C84.536 7.07461 85.0106 5.78795 83.6213 5.14395H89.1773ZM83.1467 17.5759H90.4973L86.8053 8.22656L83.1467 17.5759Z" fill="#002528"></path><path d="M101.672 28.8559C103.195 27.7719 103.229 26.5866 103.229 25.4679V8.5306C103.229 7.5826 103.229 6.22795 101.672 5.14395H110.073C111.933 5.14395 118.507 5.17728 118.507 11.4106C118.507 15.9159 114.644 18.1853 110.852 18.1853C109.867 18.1853 108.817 17.9826 107.972 17.7452C110.683 17.6439 114.611 16.3559 114.611 12.0879C114.611 9.31056 112.713 7.65059 109.529 7.65059C108.583 7.65059 107.597 7.78659 106.685 7.98926V24.9266C106.685 26.0106 106.855 27.9413 108.785 28.8559H101.672Z" fill="#002528"></path><path d="M141.573 9.68291C140.928 9.24291 138.421 7.51488 134.864 7.51488C130.427 7.51488 125.988 10.4615 125.988 16.2548C125.988 21.2002 128.835 26.4856 135.677 26.4856C140.353 26.4856 142.621 24.8242 143.639 23.9776L141.333 28.5175C139.336 29.1602 137.643 29.3642 135.408 29.3642C125.245 29.3642 122.095 22.4202 122.095 17.1696C122.095 10.6656 126.701 4.63623 135.271 4.63623C137.337 4.63623 138.556 4.94024 139.675 5.17757C140.353 5.3469 140.825 5.44821 141.573 5.55088V9.68291Z" fill="#002528"></path><path d="M159.757 5.14395V9.03991C159.113 8.29458 158.199 7.78659 156.2 7.81992L151.627 7.92122V14.6973H156.505C156.945 14.6973 157.352 14.6626 157.725 14.5946V18.2866C157.08 17.6439 156.336 17.4066 155.151 17.4066H151.627V25.9092C153.693 26.1119 155.353 26.1452 156.031 26.1452C159.757 26.1452 161.62 25.4013 163.111 24.0799L161.383 28.8559H146.615C148.172 27.7719 148.172 26.3493 148.172 25.4693V8.5319C148.172 7.65057 148.172 6.22795 146.615 5.14395H159.757Z" fill="#002528"></path><path d="M183.805 14.4932V8.5306C183.805 7.41327 183.771 6.22795 182.247 5.14395H188.817C187.293 6.22795 187.26 7.41327 187.26 8.5306V25.4679C187.26 26.5866 187.293 27.7719 188.817 28.8559H182.247C183.771 27.7719 183.805 26.5866 183.805 25.4679V17.2026H170.763V25.4679C170.763 26.5866 170.797 27.7719 172.321 28.8559H165.751C167.273 27.7719 167.307 26.5866 167.307 25.4679V8.5306C167.307 7.41327 167.273 6.22795 165.751 5.14395H172.321C170.797 6.22795 170.763 7.41327 170.763 8.5306V14.4932H183.805Z" fill="#002528"></path><path d="M204.904 5.14395L213.068 25.3666C213.608 26.6879 214.287 27.9759 215.945 28.8559H208.663C210.255 28.1439 209.984 26.9932 209.68 26.2146L207.104 19.8452H197.992L195.86 25.1639C195.384 26.3493 195.08 27.7386 196.671 28.8559H190.268C192.031 27.7039 192.708 26.1799 193.353 24.5546L200.128 7.41328C200.263 7.07461 200.737 5.78795 199.348 5.14395H204.904ZM198.873 17.5759H206.224L202.532 8.22656L198.873 17.5759Z" fill="#002528"></path><path d="M234.472 25.4695C234.472 26.4175 234.472 27.7734 236.028 28.8574H229.456C231.015 27.7734 231.015 26.4175 231.015 25.4695V7.85475H224.207V11.5801C224.207 20.0495 223.528 29.3628 217.364 29.3628C216.72 29.3628 216.177 29.2281 215.704 29.0588L215.264 25.1641C216.177 26.0788 216.991 26.1454 217.364 26.1454C220.615 26.1454 221.292 17.9481 221.292 11.9521C221.292 8.32948 221.123 5.95744 218.82 5.14277H236.061C234.504 6.26144 234.472 7.44679 234.472 8.53079V25.4695Z" fill="#002528"></path><path d="M113.816 41.2785C113.555 41.0998 112.536 40.3985 111.092 40.3985C109.292 40.3985 107.489 41.5945 107.489 43.9465C107.489 45.9545 108.644 48.0998 111.423 48.0998C113.32 48.0998 114.243 47.4265 114.655 47.0838L113.72 48.9252C112.909 49.1878 112.22 49.2705 111.312 49.2705C107.188 49.2705 105.908 46.4492 105.908 44.3185C105.908 41.6772 107.779 39.2291 111.257 39.2291C112.096 39.2291 112.592 39.3545 113.045 39.4492C113.32 39.5199 113.513 39.5598 113.816 39.6011V41.2785Z" fill="#002528"></path><path d="M119.327 47.6893C119.327 48.0746 119.327 48.6239 119.96 49.0639H117.292C117.924 48.6239 117.924 48.0746 117.924 47.6893V40.5372L116.288 40.5226C115.957 40.5226 115.365 40.5786 114.857 41.1012L115.409 39.3826C115.737 39.4373 115.929 39.4372 116.288 39.4372H121.609C121.899 39.4372 122.201 39.4093 122.449 39.3826L121.968 40.9919C121.705 40.5226 121.211 40.5226 120.867 40.5226L119.327 40.5372V47.6893Z" fill="#002528"></path><path d="M123.311 49.0639C123.931 48.6239 123.944 48.1426 123.944 47.6893V40.8119C123.944 40.4266 123.944 39.8759 123.311 39.4359H126.723C127.479 39.4359 130.147 39.4506 130.147 41.9813C130.147 43.8106 128.58 44.7319 127.039 44.7319C126.639 44.7319 126.213 44.6493 125.869 44.5533C126.971 44.5119 128.565 43.9893 128.565 42.2559C128.565 41.1279 127.796 40.4546 126.504 40.4546C126.117 40.4546 125.719 40.5093 125.347 40.5919V47.4693C125.347 47.9093 125.416 48.6933 126.199 49.0639H123.311Z" fill="#002528"></path><path d="M135.715 39.4359L139.028 47.6466C139.249 48.1839 139.525 48.7066 140.197 49.0639H137.243C137.888 48.7746 137.777 48.3066 137.653 47.9906L136.608 45.4053H132.911L132.043 47.5639C131.852 48.0466 131.727 48.6093 132.372 49.0639H129.773C130.488 48.5959 130.763 47.9773 131.025 47.3173L133.776 40.3572C133.831 40.2199 134.024 39.6973 133.461 39.4359H135.715ZM133.267 44.4839H136.251L134.751 40.6879L133.267 44.4839Z" fill="#002528"></path><path d="M141.376 40.4412C140.992 39.8892 140.689 39.6145 140.292 39.4371L141.461 39.3945C142.519 39.3545 142.38 39.2718 142.96 40.0958L144.829 42.8052L146.424 40.6731C146.508 40.5638 146.713 40.2612 146.713 40.0145C146.713 39.8612 146.644 39.5745 146.179 39.4371H148.817L145.448 43.7145L148.281 47.8265C148.776 48.5398 149.232 48.8705 149.629 49.0625H147.347C147.029 48.7478 146.892 48.5279 146.713 48.2519L144.459 44.8412L142.353 47.6185C142.121 47.9212 141.981 48.1692 141.981 48.3772C141.981 48.6932 142.231 48.9411 142.545 49.0625H139.644C140.043 48.6505 140.332 48.3065 140.648 47.9091L143.785 43.9185L141.376 40.4412Z" fill="#002528"></path><path d="M151.715 39.4358L154.397 45.1852L156.241 41.0038C156.321 40.8385 156.432 40.4945 156.432 40.1105C156.432 39.9172 156.363 39.6012 156.032 39.4358H158.139L154.687 47.1105C153.873 48.9265 152.719 49.2011 151.756 49.2011C151.179 49.2011 150.751 49.1185 150.271 48.8291L151.192 47.7972C151.384 47.9492 151.604 48.0465 151.948 48.0465C152.801 48.0465 153.324 47.4265 153.557 46.9318L153.819 46.3958C153.213 45.9691 153.063 45.6385 152.869 45.2678L150.449 40.4545C150.105 39.7665 149.72 39.5318 149.487 39.4358H151.715Z" fill="#002528"></path><path d="M162.837 39.3679C164.461 39.3399 165.603 40.1786 165.603 41.5279C165.603 42.7519 164.667 43.2879 164.144 43.4799C165.52 43.6319 166.511 44.6212 166.511 46.0652C166.511 47.2892 165.836 49.0639 162.48 49.0639H159.139C159.771 48.6239 159.771 48.0733 159.771 47.6893V40.8119C159.771 40.4266 159.771 39.8759 159.139 39.4359L162.837 39.3679ZM161.173 43.2732L161.929 43.2879C163.373 43.3146 164.033 42.5453 164.033 41.7479C164.033 41.0186 163.512 40.3853 162.26 40.3853C161.972 40.3853 161.489 40.4266 161.173 40.4679V43.2732ZM161.173 47.9226C161.545 47.9773 162.095 48.0466 162.604 48.0466C164.708 48.0466 164.928 46.7532 164.928 46.1626C164.928 45.3639 164.461 44.1679 162.315 44.1679C162.205 44.1679 161.929 44.1679 161.173 44.2226V47.9226Z" fill="#002528"></path><path d="M172.627 39.4359L175.94 47.6466C176.16 48.1839 176.436 48.7066 177.109 49.0639H174.153C174.8 48.7746 174.689 48.3066 174.565 47.9906L173.52 45.4053H169.821L168.955 47.5639C168.763 48.0466 168.639 48.6093 169.284 49.0639H166.685C167.4 48.5959 167.675 47.9773 167.936 47.3173L170.688 40.3572C170.743 40.2199 170.935 39.6973 170.372 39.4359H172.627ZM170.179 44.4839H173.163L171.663 40.6879L170.179 44.4839Z" fill="#002528"></path><path d="M185.028 43.2319V40.8119C185.028 40.3586 185.013 39.8759 184.395 39.4359H187.063C186.445 39.8759 186.429 40.3586 186.429 40.8119V47.6893C186.429 48.1426 186.445 48.6226 187.063 49.0639H184.395C185.013 48.6226 185.028 48.1426 185.028 47.6893V44.3333H179.732V47.6893C179.732 48.1426 179.747 48.6226 180.364 49.0639H177.696C178.316 48.6226 178.331 48.1426 178.331 47.6893V40.8119C178.331 40.3586 178.316 39.8759 177.696 39.4359H180.364C179.747 39.8759 179.732 40.3586 179.732 40.8119V43.2319H185.028Z" fill="#002528"></path><path d="M196.259 43.2319V40.8119C196.259 40.3586 196.245 39.8759 195.627 39.4359H198.295C197.677 39.8759 197.661 40.3586 197.661 40.8119V47.6893C197.661 48.1426 197.677 48.6226 198.295 49.0639H195.627C196.245 48.6226 196.259 48.1426 196.259 47.6893V44.3333H190.964V47.6893C190.964 48.1426 190.977 48.6226 191.596 49.0639H188.928C189.548 48.6226 189.563 48.1426 189.563 47.6893V40.8119C189.563 40.3586 189.548 39.8759 188.928 39.4359H191.596C190.977 39.8759 190.964 40.3586 190.964 40.8119V43.2319H196.259Z" fill="#002528"></path><path d="M205.028 40.4811C204.753 40.4264 204.465 40.3984 204.109 40.3984C202.609 40.3984 202.155 41.2918 202.155 42.1451C202.155 43.5078 203.584 44.0158 204.631 43.9331C203.668 45.6944 201.523 49.1465 199.968 49.1465C199.776 49.1465 199.528 49.1331 198.469 49.0638C200.133 48.3064 202.031 45.7344 202.912 44.4438C201.688 44.2224 200.573 43.4117 200.573 42.0904C200.573 41.2104 200.848 39.3811 204.053 39.3811C204.452 39.3811 204.851 39.3944 205.249 39.4078C205.855 39.4224 206.46 39.4358 207.065 39.4358C206.432 39.8758 206.432 40.4264 206.432 40.8117V47.6891C206.432 48.0731 206.432 48.6224 207.065 49.0638H204.396C205.028 48.6224 205.028 48.0731 205.028 47.6891V40.4811Z" fill="#002528"></path></svg>