<svg id="visual" viewBox="0 0 900 450" width="900" height="450" xmlns="http://www.w3.org/2000/svg" xmlns:xlink="http://www.w3.org/1999/xlink" version="1.1"><rect x="0" y="0" width="900" height="450" fill="#ffffff"></rect><path d="M0 272L129 304L257 284L386 335L514 298L643 291L771 289L900 297L900 451L771 451L643 451L514 451L386 451L257 451L129 451L0 451Z" fill="#e9e9e9"></path><path d="M0 327L129 329L257 338L386 344L514 334L643 333L771 347L900 352L900 451L771 451L643 451L514 451L386 451L257 451L129 451L0 451Z" fill="#c9ddc4"></path><path d="M0 337L129 379L257 380L386 376L514 354L643 356L771 341L900 343L900 451L771 451L643 451L514 451L386 451L257 451L129 451L0 451Z" fill="#a9d19f"></path><path d="M0 365L129 370L257 383L386 362L514 373L643 395L771 393L900 384L900 451L771 451L643 451L514 451L386 451L257 451L129 451L0 451Z" fill="#87c47b"></path><path d="M0 397L129 422L257 423L386 404L514 415L643 413L771 422L900 406L900 451L771 451L643 451L514 451L386 451L257 451L129 451L0 451Z" fill="#62b756"></path></svg>