<svg xmlns="http://www.w3.org/2000/svg" viewBox="0 0 148 59.864" xmlns:v="https://vecta.io/nano"><path d="M76.96.841v17.034h-4.2V8.692l-4.13 6.87h-.413l-4.061-6.87v9.183h-4.268V.841h4.268l4.268 7.29 4.337-7.29zm12.873 17.034l-.688-2.453h-5.577l-.688 2.453h-4.612L83.775.841h5.232l5.507 17.034zm-5.165-6.234h3.373L86.32 5.823l-1.652 5.818zm9.777 2.379l3.648-2.173c.462 1.411 1.818 2.332 3.3 2.243 1.308 0 2-.421 2-1.122 0-.491-.413-.911-1.1-1.192a19.22 19.22 0 0 0-2.134-.631c-3.1-.911-4.956-2.383-4.956-5.327-.057-1.468.55-2.884 1.652-3.855a6.1 6.1 0 0 1 4.13-1.472c2.69-.141 5.176 1.433 6.2 3.925L103.6 6.591a2.7 2.7 0 0 0-2.616-1.893c-1.033 0-1.583.491-1.583 1.122 0 .771.62 1.192 2.891 1.823.661.177 1.306.411 1.927.7a10.03 10.03 0 0 1 1.652.911c1.191.846 1.846 2.259 1.721 3.715.079 1.507-.559 2.962-1.721 3.925a6.87 6.87 0 0 1-4.612 1.4c-3.511-.07-5.851-1.682-6.815-4.276zM120.33.841v4.206h-4.13v12.828h-4.27V5.047h-4.2V.841zm5.849 12.968h6.471v4.066h-10.808V.841h10.67v4.066h-6.333V7.29h5.714v4h-5.714zm17.208 4.066l-2.891-5.534h-1.514v5.538h-4.268V.841h6.677c1.594-.055 3.14.554 4.268 1.682a5.56 5.56 0 0 1 1.721 4.206 5.56 5.56 0 0 1-2.822 4.837L148 17.875zm-4.405-13.034v3.851h2.34a1.77 1.77 0 0 0 1.79-1.893 1.77 1.77 0 0 0-1.79-1.893h-2.34zM58.58 34.768l3.511-2.1a3.18 3.18 0 0 0 3.167 2.173c1.239 0 1.927-.35 1.927-1.122 0-.491-.344-.841-1.1-1.192a13.3 13.3 0 0 0-2.065-.631c-2.96-.841-4.819-2.313-4.819-5.187a4.86 4.86 0 0 1 1.579-3.719 6.04 6.04 0 0 1 4-1.4 6.28 6.28 0 0 1 5.989 3.785l-3.442 2.1c-.343-1.11-1.385-1.855-2.547-1.819-.964 0-1.514.421-1.514 1.051 0 .7.551 1.122 2.753 1.823l1.927.631a9.68 9.68 0 0 1 1.583.911 4.11 4.11 0 0 1 1.721 3.575 4.5 4.5 0 0 1-1.721 3.785 6.84 6.84 0 0 1-4.474 1.332c-3.3.07-5.576-1.472-6.471-4zm18.38-.209h6.264v3.925H72.83V22.011h10.326v3.925h-6.2v2.313h5.576v3.855H76.96zm16.659 3.925l-2.822-5.327h-1.515v5.327h-4.13V22.011h6.471a5.77 5.77 0 0 1 4.13 1.612 5.5 5.5 0 0 1 1.721 4.066 5.36 5.36 0 0 1-2.753 4.7l3.3 6.1zm-4.267-12.548v3.715h2.272a1.66 1.66 0 0 0 1.721-1.823 1.72 1.72 0 0 0-1.721-1.893zm13.904 12.548l-5.232-16.473h4.543l3.1 11.356 3.164-11.356h4.543l-5.232 16.473zm11.358-16.473h4.2v16.473h-4.2zm8.468 14.37a8.54 8.54 0 0 1-2.409-6.169 8.11 8.11 0 0 1 2.409-6.1 7.96 7.96 0 0 1 6.058-2.453 8.17 8.17 0 0 1 4.061 1.051 8.38 8.38 0 0 1 2.96 2.874l-3.58 2.1a3.9 3.9 0 0 0-3.442-1.893 4.21 4.21 0 0 0-3.166 1.269 4.62 4.62 0 0 0-1.17 3.225 4.5 4.5 0 0 0 1.17 3.224 4.16 4.16 0 0 0 3.167 1.192 3.76 3.76 0 0 0 3.442-1.893l3.58 2.1a8.44 8.44 0 0 1-13.079 1.472zm18.654-1.822H148v3.925h-10.394V22.011h10.257v3.925h-6.127v2.313h5.576v3.855h-5.576z" fill="#0c0c0c"></path><g fill="#0a0a0a"><path d="M47.016 19.487V0l-23.68 19.627v19.488z"></path><path d="M23.68 19.487V0L0 19.627v19.488z"></path></g><path d="M41.096 26.988v12.127l11.84-9.814V17.174zm103.256 18.365H0v14.51h148v-14.51z" fill="#3c8ec8"></path><path d="M68.562 53.134l.413-2.313h-.62l.069-.561h.62l.275-1.332h.62l-.275 1.332h1.17l-.069.561h-1.17l-.413 2.313a.9.9 0 0 0-.069.421c0 .771.482.841.757.841h.275l-.138.561H69.8c-.364.049-.729-.076-.986-.337s-.376-.629-.321-.992c0-.14.069-.35.069-.491zm5.162-3.014a2.01 2.01 0 0 1 1.512.55 2 2 0 0 1 .622 1.483c-.041 1.55-1.273 2.805-2.822 2.874a2.01 2.01 0 0 1-2.133-2.033 2.86 2.86 0 0 1 2.822-2.874zm-.757 4.346a2.3 2.3 0 0 0 2.2-2.313 1.42 1.42 0 0 0-.408-1.046c-.274-.278-.648-.432-1.038-.426-1.213.045-2.179 1.03-2.2 2.243a1.41 1.41 0 0 0 .374 1.099 1.4 1.4 0 0 0 1.072.443zm4.888 1.823a1.73 1.73 0 0 0 1.859-1.472l.069-.421a.86.86 0 0 1 .069-.35c-.304.545-.891.871-1.514.841-.492.015-.966-.186-1.297-.55a1.68 1.68 0 0 1-.424-1.343c0-1.332.826-2.944 2.409-2.944a1.38 1.38 0 0 1 1.446.841v-.21l.069-.491h.62l-.895 4.626c-.171 1.219-1.249 2.104-2.478 2.033a3.15 3.15 0 0 1-1.583-.421l.275-.491a3.09 3.09 0 0 0 1.377.35zm.62-1.963c1.239 0 1.79-1.4 1.79-2.524 0-.841-.482-1.122-1.17-1.122-1.17 0-1.79 1.192-1.79 2.313a1.11 1.11 0 0 0 1.17 1.332zm6.126-4.206a1.5 1.5 0 0 1 1.652 1.682 2.56 2.56 0 0 1-.138.771h-3.511c0 .14-.069.28-.069.421-.025.393.118.778.394 1.059s.659.431 1.052.413a2.38 2.38 0 0 0 1.514-.561l.207.491a2.98 2.98 0 0 1-1.721.631 1.9 1.9 0 0 1-2.065-1.963 2.81 2.81 0 0 1 2.685-2.944zm1.033 1.963v-.35a1 1 0 0 0-1.033-1.122 2.01 2.01 0 0 0-1.859 1.472zm1.582 1.051l.413-2.313h-.62l.069-.561h.62l.275-1.332h.62l-.275 1.332h1.17l-.069.561h-1.17l-.413 2.313a.9.9 0 0 0-.069.421c0 .771.482.841.757.841h.275l-.138.561h-.207a1.16 1.16 0 0 1-.988-.338 1.17 1.17 0 0 1-.32-.994c-.011-.167.012-.334.069-.491zm3.649-4.766h.62l-.482 2.524-.138.421a2.45 2.45 0 0 1 2-1.192c.826 0 1.308.421 1.308 1.192.011.213-.012.426-.069.631l-.551 2.944h-.62l.551-2.8c.057-.205.08-.418.069-.631 0-.561-.344-.771-.826-.771-1.089.117-1.964.951-2.134 2.033l-.413 2.173h-.62l1.305-6.524zm7.022 1.752a1.5 1.5 0 0 1 1.652 1.682 2.56 2.56 0 0 1-.138.771H95.89c0 .14-.069.28-.069.421-.025.393.118.778.394 1.059s.659.431 1.052.413a2.38 2.38 0 0 0 1.514-.561l.207.491a2.98 2.98 0 0 1-1.721.631 1.9 1.9 0 0 1-2.065-1.963 2.81 2.81 0 0 1 2.685-2.944zm.964 1.963v-.35a1 1 0 0 0-1.033-1.122 2.01 2.01 0 0 0-1.859 1.472zm2.202-1.893h.62l-.138.841-.138.421c.271-.726.947-1.222 1.721-1.262h.275l-.138.631h-.207c-.964 0-1.721 1.332-1.927 2.383l-.344 1.752h-.62l.895-4.767zm5.921 2.944l.413-2.313h-.62l.069-.561h.62l.275-1.332h.619l-.275 1.332h1.17l-.069.561h-1.17l-.413 2.313a.9.9 0 0 0-.069.421c0 .771.482.841.757.841h.275l-.138.561h-.207a1.16 1.16 0 0 1-.988-.338 1.17 1.17 0 0 1-.32-.994c-.011-.167.012-.334.069-.491zm5.091-3.014a2.01 2.01 0 0 1 1.512.55 2 2 0 0 1 .622 1.483c-.041 1.55-1.273 2.805-2.822 2.874a2.01 2.01 0 0 1-1.512-.55 2 2 0 0 1-.622-1.483 2.91 2.91 0 0 1 2.822-2.874zm-.688 4.346a2.3 2.3 0 0 0 2.2-2.313 1.42 1.42 0 0 0-.408-1.046c-.274-.278-.648-.432-1.038-.426-1.213.045-2.179 1.03-2.2 2.243a1.41 1.41 0 0 0 .374 1.099 1.4 1.4 0 0 0 1.072.443zm6.679-4.276h.62l-.138.7-.138.421c.391-.706 1.121-1.158 1.927-1.192.895 0 1.17.421 1.239 1.192.392-.708 1.125-1.159 1.933-1.191.826 0 1.308.421 1.308 1.192.011.213-.012.426-.069.631l-.551 2.944h-.62l.551-2.8c.057-.205.08-.418.069-.631 0-.491-.206-.771-.826-.771-.964 0-1.721 1.051-1.927 1.963l-.413 2.243h-.62l.551-2.8c.057-.205.08-.418.069-.631 0-.491-.207-.771-.757-.771a2.29 2.29 0 0 0-1.927 2.033l-.413 2.243h-.62l.757-4.767zm10.462-.07a2.01 2.01 0 0 1 1.512.55 2 2 0 0 1 .622 1.483c-.041 1.55-1.273 2.805-2.822 2.874a2.01 2.01 0 0 1-1.512-.55 2 2 0 0 1-.622-1.483 2.86 2.86 0 0 1 2.822-2.874zm-.757 4.346a2.3 2.3 0 0 0 2.2-2.313 1.42 1.42 0 0 0-.408-1.046c-.274-.278-.648-.432-1.038-.426-1.213.045-2.179 1.03-2.2 2.243-.027.4.113.793.387 1.086a1.44 1.44 0 0 0 1.059.456zm3.649-4.276h.62l.62 3.435c.046.183.069.372.069.561a3.84 3.84 0 0 1 .275-.561l1.927-3.435h.688l-2.616 4.7h-.688l-.895-4.7zm6.953-.07a1.5 1.5 0 0 1 1.652 1.682 2.56 2.56 0 0 1-.138.771h-3.511c0 .14-.069.28-.069.421-.025.393.118.778.394 1.059s.659.431 1.052.413a2.38 2.38 0 0 0 1.514-.561l.207.491a2.98 2.98 0 0 1-1.721.631 1.9 1.9 0 0 1-2.065-1.963 2.81 2.81 0 0 1 2.685-2.944zm.964 1.963v-.35a1 1 0 0 0-1.033-1.122 2.01 2.01 0 0 0-1.859 1.472z" fill="#fff"></path></svg>