<?xml version="1.0" encoding="utf-8"?>
<!-- Generator: Adobe Illustrator 17.0.0, SVG Export Plug-In . SVG Version: 6.00 Build 0)  -->
<!DOCTYPE svg PUBLIC "-//W3C//DTD SVG 1.1//EN" "http://www.w3.org/Graphics/SVG/1.1/DTD/svg11.dtd">
<svg version="1.1" id="Layer_1" xmlns="http://www.w3.org/2000/svg" xmlns:xlink="http://www.w3.org/1999/xlink" x="0px" y="0px"
	 width="162px" height="46px" viewBox="0 0 162 46" enable-background="new 0 0 162 46" xml:space="preserve">
<g>
	<path fill="#00AB4E" d="M76.222,15.539c-0.1-0.235-0.167-0.531-0.167-0.796c0-1.128,0.972-1.99,2.115-1.99
		c1.008,0,1.779,0.628,2.048,1.49l5.405,15.952l5.31-15.884c0.335-0.963,1.04-1.622,2.08-1.622h0.302
		c1.045,0,1.782,0.659,2.082,1.622l5.307,15.884l5.41-15.983c0.298-0.831,1.003-1.459,2.013-1.459c1.109,0,2.047,0.861,2.047,1.955
		c0,0.264-0.1,0.595-0.201,0.83l-6.951,19.233c-0.366,1.027-1.14,1.689-2.15,1.689h-0.401c-1.006,0-1.745-0.628-2.114-1.689
		l-5.24-15.155l-5.24,15.155c-0.366,1.061-1.141,1.689-2.147,1.689h-0.405c-1.008,0-1.745-0.628-2.149-1.689L76.222,15.539z"/>
	<path fill="#00AB4E" d="M131.72,24.587v-0.066c0-4.507-3.324-8.252-7.995-8.252c-4.667,0-7.926,3.676-7.926,8.189v0.063
		c0,4.512,3.328,8.224,7.997,8.224C128.464,32.746,131.72,29.099,131.72,24.587 M111.468,24.587v-0.066
		c0-6.531,5.104-12.001,12.327-12.001c7.218,0,12.258,5.405,12.258,11.938v0.063c0,6.535-5.107,12.003-12.328,12.003
		C116.503,36.524,111.468,31.124,111.468,24.587"/>
	<path fill="#00AB4E" d="M139.004,24.587v-0.066c0-6.497,5.04-12.001,12.123-12.001c3.528,0,5.88,0.828,8.027,2.355
		c0.405,0.297,0.838,0.863,0.838,1.657c0,1.095-0.907,2.023-2.047,2.023c-0.538,0-0.938-0.234-1.275-0.463
		c-1.512-1.092-3.158-1.823-5.711-1.823c-4.331,0-7.624,3.745-7.624,8.189v0.063c0,4.778,3.19,8.292,7.995,8.292
		c2.217,0,4.228-0.695,5.676-1.757v-4.344h-4.635c-1.006,0-1.849-0.76-1.849-1.759c0-0.994,0.842-1.787,1.849-1.787h6.548
		c1.175,0,2.081,0.896,2.081,2.055v6.202c0,1.16-0.471,1.989-1.442,2.584c-2.016,1.328-4.838,2.517-8.363,2.517
		C143.842,36.524,139.004,31.353,139.004,24.587"/>
	<path fill="#F6B221" d="M48.694,9.151c0-4.335,3.58-7.876,7.976-7.876c4.371,0,7.972,3.56,7.972,7.876
		c0,1.431-0.397,2.774-1.081,3.938L56.67,24.898l-6.906-11.809C49.084,11.929,48.694,10.585,48.694,9.151"/>
	<path fill="#00AB4E" d="M25.914,13.075c-2.196-3.757-0.883-8.588,2.918-10.755c3.789-2.158,8.708-0.857,10.896,2.881l12.646,21.632
		c1.004,1.713,1.004,3.678,0,5.392l-7.63,13.051L25.914,13.075z"/>
	<path fill="#00AB4E" d="M2.066,13.075C-0.132,9.318,1.18,4.487,4.986,2.32c3.783-2.158,8.705-0.857,10.893,2.881l12.648,21.632
		c1.001,1.713,1.001,3.678,0,5.392l-7.631,13.051L2.066,13.075z"/>
</g>
</svg>
